<?xml version="1.0"?>
<svg version="1.1" xmlns="http://www.w3.org/2000/svg" width="400px" height="200px" style="border: dashed 2px #aaa"><path fill="#" d="M52.4,141.04c0,1.76-0.72,2.16-1.92,2.16l-5.36,0c-1.2,0-2.24-0.56-3.04-1.68l-26.08-35.68l-0.16,0l0,35.28c0,1.52-0.72,2.08-2.08,2.08l-5.76,0c-1.52,0-2.16-0.4-2.16-2l0-51.2c0-1.68,0.72-2.16,2.16-2.16l5.2,0c1.28,0,1.92,0.4,2.72,1.52l26.32,36.16l0.16,0l0-35.6c0-1.52,0.72-2.08,2.08-2.08l6,0c1.68,0,1.92,0.88,1.92,2.16l0,51.04z M113.72,141.92c0,0.8-0.4,1.28-1.44,1.28l-7.12,0c-1.68,0-2.24-0.64-2.72-1.92l-4.16-11.76l-20.24,0l-4.16,12c-0.32,1.04-0.88,1.68-2.16,1.68l-7.12,0c-0.8,0-1.12-0.4-1.12-1.04c0-0.24,0-0.56,0.16-0.88l19.52-51.84c0.4-0.96,0.96-1.6,2.16-1.6l6.4,0c1.2,0,1.92,0.56,2.24,1.44l19.6,51.6c0.16,0.4,0.16,0.72,0.16,1.04z M95.56,121.76l-5.68-16.88c-0.72-2.24-1.2-3.92-1.6-5.2l-0.16,0c-0.4,1.36-0.88,3.04-1.68,5.28l-5.68,16.8l14.8,0z M164.96,139.28c0,0.72-0.32,1.2-1.28,1.6c-5.28,2.16-10.08,3.28-15.92,3.28c-16.88,0-25.12-11.92-25.12-28.4c0-16.4,9.84-28.96,25.92-28.96c5.52,0,10.48,1.12,15.04,3.36c0.96,0.48,1.28,0.88,1.28,1.36c0,0.32-0.08,0.64-0.24,1.04l-1.84,5.04c-0.24,0.72-0.64,1.04-1.12,1.04c-0.24,0-0.56-0.16-0.88-0.32c-4-2.08-7.6-2.88-11.6-2.88c-11.12,0-15.44,10.24-15.44,19.92c0,12.32,5.76,20.16,15.6,20.16c3.84,0,7.76-0.88,11.52-2.56c0.4-0.16,0.72-0.32,0.96-0.32c0.56,0,0.96,0.4,1.28,1.2l1.6,4.32c0.16,0.4,0.24,0.8,0.24,1.12z M223.88,115.2c0,18.08-10.32,28.96-24.64,28.96c-15.28,0-24.08-11.12-24.08-28.48c0-17.2,9.6-28.88,24.64-28.88c15.84,0,24.08,12,24.08,28.4z M212.84,115.44c0-13.44-4.72-19.92-13.28-19.92c-8,0-13.36,7.44-13.36,19.92c0,13.28,4.88,20,13.36,20c7.92,0,13.28-6.96,13.28-20z M277.76,139.28c0,0.72-0.32,1.2-1.28,1.6c-5.28,2.16-10.08,3.28-15.92,3.28c-16.88,0-25.12-11.92-25.12-28.4c0-16.4,9.84-28.96,25.92-28.96c5.52,0,10.48,1.12,15.04,3.36c0.96,0.48,1.28,0.88,1.28,1.36c0,0.32-0.08,0.64-0.24,1.04l-1.84,5.04c-0.24,0.72-0.64,1.04-1.12,1.04c-0.24,0-0.56-0.16-0.88-0.32c-4-2.08-7.6-2.88-11.6-2.88c-11.12,0-15.44,10.24-15.44,19.92c0,12.32,5.76,20.16,15.6,20.16c3.84,0,7.76-0.88,11.52-2.56c0.4-0.16,0.72-0.32,0.96-0.32c0.56,0,0.96,0.4,1.28,1.2l1.6,4.32c0.16,0.4,0.24,0.8,0.24,1.12z M335.16,141.92c0,0.8-0.4,1.28-1.44,1.28l-7.12,0c-1.68,0-2.24-0.64-2.72-1.92l-4.16-11.76l-20.24,0l-4.16,12c-0.32,1.04-0.88,1.68-2.16,1.68l-7.12,0c-0.8,0-1.12-0.4-1.12-1.04c0-0.24,0-0.56,0.16-0.88l19.52-51.84c0.4-0.96,0.96-1.6,2.16-1.6l6.4,0c1.2,0,1.92,0.56,2.24,1.44l19.6,51.6c0.16,0.4,0.16,0.72,0.16,1.04z M317,121.76l-5.68-16.88c-0.72-2.24-1.2-3.92-1.6-5.2l-0.16,0c-0.4,1.36-0.88,3.04-1.68,5.28l-5.68,16.8l14.8,0z M392.96,141.04c0,1.76-0.72,2.16-1.92,2.16l-5.36,0c-1.2,0-2.24-0.56-3.04-1.68l-26.08-35.68l-0.16,0l0,35.28c0,1.52-0.72,2.08-2.08,2.08l-5.76,0c-1.52,0-2.16-0.4-2.16-2l0-51.2c0-1.68,0.72-2.16,2.16-2.16l5.2,0c1.28,0,1.92,0.4,2.72,1.52l26.32,36.16l0.16,0l0-35.6c0-1.52,0.72-2.08,2.08-2.08l6,0c1.68,0,1.92,0.88,1.92,2.16l0,51.04z"/><path fill="#" d=""/></svg>
